PathFileType	4	(X/Y/Z)	RBDS026static.trc
DataRate	CameraRate	NumFrames	NumMarkers	Units	OrigDataRate	OrigDataStartFrame	OrigNumFrames
150.000000	150.000000	4	48	mm	150.000000	93	150
Frame#	Time	L.Ankle			L.Ankle.Medial			L.ASIS			L.GTR			L.Heel.Bottom			L.Heel.Lateral			L.Heel.Top			L.HF			L.Iliac.Crest			L.Knee			L.Knee.Medial			L.MT1			L.MT2			L.MT5			L.PSIS			L.Shank.Bottom.Lateral			L.Shank.Bottom.Medial			L.Shank.Top.Lateral			L.Shank.Top.Medial			L.Thigh.Bottom.Lateral			L.Thigh.Bottom.Medial			L.Thigh.Top.Lateral			L.Thigh.Top.Medial			L.TT			R.Ankle			R.Ankle.Medial			R.ASIS			R.GTR			R.Heel.Bottom			R.Heel.Lateral			R.Heel.Top			R.HF			R.Iliac.Crest			R.Knee			R.Knee.Medial			R.MT1			R.MT2			R.MT5			R.PSIS			R.Shank.Bottom.Lateral			R.Shank.Bottom.Medial			R.Shank.Top.Lateral			R.Shank.Top.Medial			R.Thigh.Bottom.Lateral			R.Thigh.Bottom.Medial			R.Thigh.Top.Lateral			R.Thigh.Top.Medial			R.TT			
		X1	Y1	Z1	X2	Y2	Z2	X3	Y3	Z3	X4	Y4	Z4	X5	Y5	Z5	X6	Y6	Z6	X7	Y7	Z7	X8	Y8	Z8	X9	Y9	Z9	X10	Y10	Z10	X11	Y11	Z11	X12	Y12	Z12	X13	Y13	Z13	X14	Y14	Z14	X15	Y15	Z15	X16	Y16	Z16	X17	Y17	Z17	X18	Y18	Z18	X19	Y19	Z19	X20	Y20	Z20	X21	Y21	Z21	X22	Y22	Z22	X23	Y23	Z23	X24	Y24	Z24	X25	Y25	Z25	X26	Y26	Z26	X27	Y27	Z27	X28	Y28	Z28	X29	Y29	Z29	X30	Y30	Z30	X31	Y31	Z31	X32	Y32	Z32	X33	Y33	Z33	X34	Y34	Z34	X35	Y35	Z35	X36	Y36	Z36	X37	Y37	Z37	X38	Y38	Z38	X39	Y39	Z39	X40	Y40	Z40	X41	Y41	Z41	X42	Y42	Z42	X43	Y43	Z43	X44	Y44	Z44	X45	Y45	Z45	X46	Y46	Z46	X47	Y47	Z47	X48	Y48	Z48	

94	0.62	708.39990234375	107.0757904052734	1038.177734375	735.9964599609375	119.3417358398438	1122.206298828125	884.3369140625	1063.04345703125	1114.071533203125	815.0023193359375	965.6030883789063	1051.207397460938	640.1017456054688	41.51962661743164	1080.983642578125	675.9127197265625	63.0248908996582	1035.850341796875	649.5748291015625	89.00737762451172	1082.27783203125	789.442626953125	488.9048156738281	1025.807739257813	802.1270141601563	1138.416625976563	1070.636108398438	807.5631103515625	545.2655029296875	1035.529174804688	794.011962890625	528.4680786132813	1157.31640625	864.9461059570313	57.86444854736328	1122.380737304688	868.8778686523438	68.23085021972656	1077.897705078125	828.8095092773438	50.20130920410156	1012.233825683594	709.5806274414063	1107.017456054688	1184.19775390625	731.7681884765625	186.6694641113281	1029.156860351563	686.7112426757813	195.6037750244141	1051.651977539063	742.7926025390625	264.7993774414063	1011.063781738281	695.6488037109375	277.7674560546875	1033.032958984375	792.0651245117188	666.1251220703125	1028.344970703125	730.4436645507813	665.4441528320313	1067.466186523438	785.4796142578125	776.1083374023438	1022.690368652344	729.5223388671875	774.5598754882813	1064.716674804688	844.2044677734375	457.9472045898438	1071.601440429688	710.2463989257813	104.1280288696289	1418.47802734375	735.4880981445313	122.1414489746094	1332.35888671875	880.904541015625	1067.86279296875	1353.023559570313	808.8202514648438	961.7161865234375	1414.800903320313	639.4078979492188	42.14726638793945	1371.150024414063	671.3628540039063	62.51871109008789	1416.5439453125	648.0533447265625	88.1429443359375	1370.653686523438	781.0936279296875	485.2752685546875	1441.623168945313	810.3740234375	1130.845947265625	1394.415771484375	799.1925659179688	538.080322265625	1432.888671875	803.3348388671875	525.9632568359375	1311.82958984375	863.84326171875	60.52915191650391	1332.9140625	870.592529296875	71.20043182373047	1379.336181640625	834.93798828125	50.52342987060547	1444.131225585938	710.9606323242188	1107.219360351563	1284.784912109375	725.7971801757813	179.1118774414063	1429.099731445313	678.9013671875	186.1427154541016	1400.087280273438	725.4534301757813	258.4952392578125	1447.079467773438	679.8707885742188	264.5387268066406	1417.929077148438	803.365966796875	647.3268432617188	1440.645629882813	738.36083984375	647.6690063476563	1409.08837890625	802.6904296875	757.9065551757813	1442.108032226563	740.2811279296875	757.6360473632813	1412.844848632813	841.9822998046875	458.4056091308594	1392.207763671875	
95	0.6266666666666667	708.3923950195313	107.0820999145508	1038.178833007813	735.9918823242188	119.3465347290039	1122.209228515625	884.2672729492188	1063.006713867188	1113.896606445313	814.9945068359375	965.5885620117188	1051.194580078125	640.0934448242188	41.50628662109375	1080.998291015625	675.9180908203125	63.01588439941406	1035.853515625	649.5750732421875	89.00918579101563	1082.271606445313	789.46044921875	488.8984375	1025.80712890625	802.1058959960938	1138.41357421875	1070.61865234375	807.5631713867188	545.25390625	1035.52197265625	794.02490234375	528.4472045898438	1157.29150390625	864.9943237304688	57.93399429321289	1122.43408203125	868.8864135742188	68.22834014892578	1077.902099609375	828.8009643554688	50.19647216796875	1012.232604980469	709.5579833984375	1107.014038085938	1184.189697265625	731.7669067382813	186.6646575927734	1029.134765625	686.7102661132813	195.6002655029297	1051.644653320313	742.7974853515625	264.7943725585938	1011.05078125	695.6567993164063	277.7699890136719	1033.0126953125	792.0833740234375	666.1129760742188	1028.333374023438	730.44580078125	665.4362182617188	1067.449462890625	785.4795532226563	776.1101684570313	1022.673461914063	729.5221557617188	774.5506591796875	1064.708374023438	844.2070922851563	457.9358215332031	1071.604614257813	710.2451782226563	104.1353073120117	1418.48486328125	735.486083984375	122.1445541381836	1332.335205078125	880.8981323242188	1067.860595703125	1353.017211914063	808.8263549804688	961.7198486328125	1414.799926757813	639.394775390625	42.15587997436523	1371.143310546875	671.3727416992188	62.53005981445313	1416.533813476563	648.0585327148438	88.13925170898438	1370.652709960938	781.1195678710938	485.2770080566406	1441.622436523438	810.335693359375	1130.8330078125	1394.42431640625	799.2210693359375	538.063720703125	1432.89501953125	803.3612670898438	525.962646484375	1311.814086914063	863.8499755859375	60.52196502685547	1332.91259765625	870.5979614257813	71.201416015625	1379.333862304688	834.9428100585938	50.51669311523438	1444.129150390625	710.9435424804688	1107.198974609375	1284.783325195313	725.8064575195313	179.1094360351563	1429.105346679688	678.91064453125	186.1520843505859	1400.091674804688	725.466064453125	258.4974060058594	1447.075805664063	679.882568359375	264.5385437011719	1417.934448242188	803.3892822265625	647.3231811523438	1440.652221679688	738.3854370117188	647.6677856445313	1409.091918945313	802.7015991210938	757.9024658203125	1442.104370117188	740.3005981445313	757.6184692382813	1412.826416015625	842.0151977539063	458.3930053710938	1392.203979492188	
96	0.6333333333333334	708.3901977539063	107.0785903930664	1038.163330078125	735.9920043945313	119.3367233276367	1122.206420898438	884.3126220703125	1063.038330078125	1114.041748046875	814.9744873046875	965.5917358398438	1051.155151367188	640.0999755859375	41.50089645385742	1080.986694335938	675.9037475585938	63.01180648803711	1035.848022460938	649.5806274414063	88.9947509765625	1082.265869140625	789.4529418945313	488.8858337402344	1025.791625976563	802.0742797851563	1138.415405273438	1070.591674804688	807.5740966796875	545.2489624023438	1035.51611328125	794.0180053710938	528.4609985351563	1157.29638671875	864.9983520507813	57.93043518066406	1122.416015625	868.882568359375	68.22164154052734	1077.901123046875	828.8128051757813	50.20399856567383	1012.229370117188	709.5375366210938	1106.995361328125	1184.1865234375	731.772216796875	186.6479949951172	1029.146850585938	686.7200317382813	195.5960693359375	1051.635986328125	742.8032836914063	264.7817993164063	1011.045654296875	695.6588134765625	277.7572631835938	1032.994995117188	792.0744018554688	666.1026000976563	1028.327270507813	730.4603271484375	665.420654296875	1067.43310546875	785.4779052734375	776.1004638671875	1022.657348632813	729.523681640625	774.5454711914063	1064.692504882813	844.2228393554688	457.9147033691406	1071.59228515625	710.2433471679688	104.1298599243164	1418.479614257813	735.4981079101563	122.1493835449219	1332.359497070313	880.8951416015625	1067.859130859375	1353.010864257813	808.8380737304688	961.7220458984375	1414.800415039063	639.4042358398438	42.1486701965332	1371.14306640625	671.374267578125	62.51816177368164	1416.551391601563	648.060302734375	88.13211822509766	1370.650268554688	781.15966796875	485.2699279785156	1441.621704101563	810.3092651367188	1130.813842773438	1394.42236328125	799.2431030273438	538.0555419921875	1432.8974609375	803.4144287109375	525.9398803710938	1311.812866210938	863.838623046875	60.51073455810547	1332.90966796875	870.6021728515625	71.19571685791016	1379.329711914063	834.9434204101563	50.51834106445313	1444.12646484375	710.9213256835938	1107.175170898438	1284.778198242188	725.8052978515625	179.1040802001953	1429.096801757813	678.9215087890625	186.1524810791016	1400.095825195313	725.4755859375	258.4961853027344	1447.068725585938	679.8986206054688	264.5443420410156	1417.91943359375	803.42626953125	647.3286743164063	1440.648193359375	738.4181518554688	647.6543579101563	1409.0859375	802.724365234375	757.90283203125	1442.095947265625	740.3216552734375	757.6083374023438	1412.82958984375	842.0299072265625	458.3776550292969	1392.207275390625	
97	0.64	708.4005737304688	107.0644760131836	1038.177124023438	736.0000610351563	119.3305892944336	1122.216552734375	884.2945556640625	1063.04296875	1114.028686523438	814.9642333984375	965.5803833007813	1051.139770507813	640.0931396484375	41.49496459960938	1080.989624023438	675.8970336914063	63.00186920166016	1035.849975585938	649.5653076171875	88.99748229980469	1082.264526367188	789.4577026367188	488.8818969726563	1025.78564453125	802.050048828125	1138.4033203125	1070.564453125	807.582275390625	545.2410888671875	1035.514038085938	794.0179443359375	528.4428100585938	1157.284912109375	864.990234375	57.91527557373047	1122.41455078125	868.8822631835938	68.21434020996094	1077.899047851563	828.8121948242188	50.18963241577148	1012.231201171875	709.5118408203125	1106.970581054688	1184.183471679688	731.771484375	186.6329803466797	1029.140625	686.7113647460938	195.5803833007813	1051.634765625	742.8067626953125	264.7651977539063	1011.043762207031	695.6630249023438	277.743896484375	1032.992797851563	792.0818481445313	666.0906372070313	1028.325073242188	730.4493408203125	665.4164428710938	1067.423583984375	785.4756469726563	776.0890502929688	1022.65283203125	729.5223999023438	774.54296875	1064.689697265625	844.2174682617188	457.9081115722656	1071.5927734375	710.2455444335938	104.1263656616211	1418.485595703125	735.48681640625	122.1297225952148	1332.360595703125	880.8853759765625	1067.8544921875	1353.010864257813	808.8482055664063	961.7173461914063	1414.797973632813	639.4013061523438	42.14122009277344	1371.154663085938	671.3715209960938	62.51869201660156	1416.543823242188	648.0624389648438	88.12465667724609	1370.657958984375	781.1808471679688	485.2691955566406	1441.62255859375	810.2936401367188	1130.79150390625	1394.427001953125	799.2711791992188	538.05517578125	1432.8857421875	803.4326782226563	525.9454345703125	1311.811157226563	863.8434448242188	60.51119613647461	1332.909423828125	870.603759765625	71.18968963623047	1379.330810546875	834.9490966796875	50.51534652709961	1444.123046875	710.906982421875	1107.162719726563	1284.77587890625	725.8119506835938	179.1030731201172	1429.117431640625	678.9216918945313	186.1467590332031	1400.08935546875	725.4920654296875	258.4954528808594	1447.065063476563	679.906494140625	264.5476989746094	1417.924682617188	803.4544677734375	647.3240356445313	1440.6552734375	738.4541015625	647.641357421875	1409.076904296875	802.741943359375	757.9021606445313	1442.0888671875	740.3441772460938	757.5925903320313	1412.828857421875	842.061767578125	458.3711547851563	1392.192626953125	
